<svg width="204" height="36" viewBox="0 0 204 36" fill="none" xmlns="http://www.w3.org/2000/svg">
<path d="M5.71289 34.8633H0V0H9.35059C12.8499 0 15.3809 0.61849 16.9434 1.85547C18.5221 3.09245 19.3766 5.13509 19.5068 7.9834C19.6208 9.33431 19.6696 10.4899 19.6533 11.4502C19.6533 12.4105 19.6045 13.5417 19.5068 14.8438C19.4255 16.6504 19.0104 18.1234 18.2617 19.2627C17.513 20.3857 16.3656 21.2402 14.8193 21.8262L20.5078 34.8633H14.4043L9.375 22.8027H5.71289V34.8633ZM5.71289 5.17578V17.627H9.27734C10.8236 17.627 11.9466 17.4154 12.6465 16.9922C13.3464 16.569 13.7288 15.9587 13.7939 15.1611C14.0055 12.6546 14.0055 10.1562 13.7939 7.66602C13.7288 6.85221 13.3464 6.23372 12.6465 5.81055C11.9466 5.38737 10.848 5.17578 9.35059 5.17578H5.71289ZM36.8564 34.8633H31.6787L36.8779 4.18359H45.6006L50.7998 34.8633H45.6436L44.5479 27.9883H37.9736L36.8564 34.8633ZM39.3701 16.666L38.4248 23.4336H44.0752L43.1514 16.666L42.0342 8.73828H40.4873L39.3701 16.666ZM68.2795 34.8633H61.2131V9.76172H68.3146C70.8811 9.76172 72.7385 10.2305 73.8869 11.168C75.0354 12.1055 75.633 13.6406 75.6799 15.7734C75.7502 18.1055 75.7854 20.2793 75.7854 22.2949C75.7854 24.2988 75.7502 26.4727 75.6799 28.8164C75.633 30.9727 75.0354 32.5195 73.8869 33.457C72.7385 34.3945 70.8693 34.8633 68.2795 34.8633ZM65.3264 13.4883V31.1367H68.2795C70.4357 31.1367 71.5314 30.5273 71.5666 29.3086C71.7189 24.6445 71.7189 19.9688 71.5666 15.2812C71.5314 14.0859 70.4475 13.4883 68.3146 13.4883H65.3264ZM88.6143 34.8633H85.415V15.3398H88.6143V34.8633ZM100.807 35.0352C99.2243 35.0352 98.0857 34.7594 97.391 34.208C96.6964 33.6494 96.3311 32.7256 96.2953 31.4365C96.2452 30.0758 96.2201 28.6615 96.2201 27.1934C96.2201 25.7181 96.2452 24.3001 96.2953 22.9395C96.3311 21.6576 96.6964 20.7373 97.391 20.1787C98.0857 19.6201 99.2243 19.3408 100.807 19.3408C102.397 19.3408 103.536 19.6201 104.223 20.1787C104.918 20.7373 105.283 21.6576 105.319 22.9395C105.369 24.3145 105.394 25.736 105.394 27.2041C105.394 28.665 105.369 30.0758 105.319 31.4365C105.283 32.7256 104.918 33.6494 104.223 34.208C103.536 34.7594 102.397 35.0352 100.807 35.0352ZM100.807 32.9297C101.509 32.9297 102.014 32.8438 102.322 32.6719C102.63 32.5 102.791 32.2493 102.805 31.9199C102.862 30.9746 102.898 29.9505 102.912 28.8477C102.927 27.7376 102.923 26.6276 102.902 25.5176C102.887 24.4076 102.855 23.387 102.805 22.4561C102.791 22.1195 102.626 21.8688 102.311 21.7041C101.996 21.5322 101.495 21.4463 100.807 21.4463C100.127 21.4463 99.629 21.5322 99.3139 21.7041C98.9988 21.8688 98.8305 22.1195 98.809 22.4561C98.7517 23.387 98.7159 24.4076 98.7016 25.5176C98.6872 26.6276 98.6908 27.7376 98.7123 28.8477C98.7338 29.9505 98.766 30.9746 98.809 31.9199C98.8305 32.2493 98.9988 32.5 99.3139 32.6719C99.629 32.8438 100.127 32.9297 100.807 32.9297ZM114.534 34.8633H111.431V15.3398H116.366L117.952 21.5605L119.866 31.9648H120.618L120.03 23.4473L119.798 15.3398H122.901V34.8633H117.761L116.079 28.3555L114.521 18.2246H113.741L114.274 27.3984L114.534 34.8633ZM134.021 34.8633H129.785L134.038 9.76172H141.175L145.429 34.8633H141.21L140.314 29.2383H134.935L134.021 34.8633ZM136.078 19.9746L135.304 25.5117H139.927L139.171 19.9746L138.257 13.4883H136.992L136.078 19.9746ZM167.086 34.8633H158.363L153.293 4.18359H158.557L161.113 19.8672L161.973 30.3086H163.434L164.293 19.8672L166.893 4.18359H172.135L167.086 34.8633ZM187.621 34.8633H181.737L187.645 0H197.557L203.465 34.8633H197.606L196.361 27.0508H188.89L187.621 34.8633ZM190.477 14.1846L189.403 21.875H195.824L194.774 14.1846L193.504 5.17578H191.746L190.477 14.1846Z" fill="white"/>
</svg>
